<svg width="115" height="38" fill="none" xmlns="http://www.w3.org/2000/svg"><path d="M52.822 7.507h-5.451V5.56h13.255v1.946h-5.451v14.16h-2.353V7.507zm23.894 14.16h-2.465l-2.013-5.361c-.211-.573-.52-.965-.928-1.176-.407-.227-.965-.34-1.674-.34h-3.528v6.877H63.8V5.56h6.627c1.765 0 3.114.392 4.05 1.177.95.784 1.424 1.907 1.424 3.37 0 1.056-.279 1.953-.837 2.692-.558.739-1.35 1.259-2.375 1.56.935.166 1.614.83 2.036 1.991l1.99 5.316zm-6.56-8.754c1.177 0 2.052-.226 2.625-.679.573-.467.86-1.16.86-2.08 0-.92-.287-1.6-.86-2.037-.558-.452-1.433-.678-2.624-.678h-4.05v5.474h4.05zm17.246 8.935c-1.523 0-2.85-.332-3.981-.996-1.116-.678-1.983-1.636-2.602-2.872-.603-1.237-.904-2.692-.904-4.366 0-1.689.301-3.152.904-4.388.604-1.237 1.47-2.187 2.602-2.85 1.13-.664 2.458-.996 3.98-.996 1.539 0 2.866.332 3.981.996 1.131.663 2 1.613 2.602 2.85.603 1.236.905 2.692.905 4.365 0 1.69-.302 3.152-.905 4.389-.603 1.236-1.47 2.194-2.602 2.872-1.13.664-2.457.996-3.98.996zm0-1.9c1.613 0 2.865-.55 3.754-1.652.905-1.1 1.357-2.669 1.357-4.705 0-2.02-.452-3.573-1.357-4.66-.89-1.1-2.14-1.65-3.754-1.65-1.614 0-2.865.55-3.755 1.65-.89 1.087-1.335 2.64-1.335 4.66 0 2.036.445 3.604 1.335 4.705.905 1.101 2.156 1.652 3.755 1.652zM112.336 5.56v16.106h-1.787l-9.229-12.17v12.17h-2.194V5.56h1.764l9.252 12.192V5.561h2.194zM6.624 5.2V22H4.248V7.288H.456V5.2h6.168zm15.147 7.992c.96.368 1.696.896 2.208 1.584.512.688.768 1.512.768 2.472 0 1.008-.272 1.888-.816 2.64-.544.736-1.32 1.304-2.328 1.704-1.008.4-2.192.6-3.552.6-1.344 0-2.52-.2-3.528-.6-.992-.4-1.76-.968-2.304-1.704-.544-.752-.816-1.632-.816-2.64 0-.96.248-1.784.744-2.472.512-.688 1.248-1.216 2.208-1.584-.768-.368-1.352-.856-1.752-1.464-.4-.608-.6-1.328-.6-2.16 0-.928.248-1.736.744-2.424.512-.688 1.224-1.216 2.136-1.584.912-.368 1.968-.552 3.168-.552 1.216 0 2.28.184 3.192.552.928.368 1.64.896 2.136 1.584.512.688.768 1.496.768 2.424 0 .816-.208 1.536-.624 2.16-.4.608-.984 1.096-1.752 1.464zm-3.72-6.24c-1.136 0-2.032.248-2.688.744-.656.48-.984 1.136-.984 1.968 0 .832.32 1.488.96 1.968.656.48 1.56.72 2.712.72 1.168 0 2.08-.24 2.736-.72.672-.48 1.008-1.136 1.008-1.968 0-.832-.344-1.488-1.032-1.968-.672-.496-1.576-.744-2.712-.744zm0 13.296c1.328 0 2.376-.272 3.144-.816.768-.56 1.152-1.312 1.152-2.256 0-.928-.384-1.656-1.152-2.184-.768-.544-1.816-.816-3.144-.816s-2.368.272-3.12.816c-.752.528-1.128 1.256-1.128 2.184 0 .944.376 1.696 1.128 2.256.752.544 1.792.816 3.12.816zm16.957 1.944c-1.328 0-2.512-.336-3.552-1.008-1.024-.688-1.832-1.68-2.424-2.976-.592-1.296-.888-2.832-.888-4.608 0-1.776.296-3.312.888-4.608.592-1.296 1.4-2.28 2.424-2.952 1.04-.688 2.224-1.032 3.552-1.032 1.312 0 2.48.344 3.504 1.032 1.04.672 1.856 1.656 2.448 2.952.592 1.296.888 2.832.888 4.608 0 1.776-.296 3.312-.888 4.608-.592 1.296-1.408 2.288-2.448 2.976-1.024.672-2.192 1.008-3.504 1.008zm0-2.136c1.344 0 2.416-.552 3.216-1.656.816-1.104 1.224-2.704 1.224-4.8 0-2.096-.408-3.696-1.224-4.8-.8-1.104-1.872-1.656-3.216-1.656-1.36 0-2.448.552-3.264 1.656-.8 1.104-1.2 2.704-1.2 4.8 0 2.096.4 3.696 1.2 4.8.816 1.104 1.904 1.656 3.264 1.656z" fill="#3A474E"/><path d="M3.846 30.7h1.17V37h-1.17v-6.3zm9.957 0V37h-.963l-3.474-4.266V37H8.205v-6.3h.963l3.474 4.266V30.7h1.161zm8.89 0L19.946 37h-1.152l-2.754-6.3h1.27l2.096 4.86 2.115-4.86h1.17zm6.874 5.319V37h-4.725v-6.3h4.599v.981h-3.429v1.638h3.042v.963h-3.042v1.737h3.555zm4.742 1.071c-.486 0-.957-.069-1.413-.207-.45-.138-.807-.321-1.07-.549l.404-.909c.258.204.573.372.945.504.378.126.756.189 1.134.189.468 0 .816-.075 1.044-.225.234-.15.351-.348.351-.594a.556.556 0 00-.198-.441 1.279 1.279 0 00-.486-.279 10.935 10.935 0 00-.81-.225 9.706 9.706 0 01-1.17-.342 1.981 1.981 0 01-.765-.531c-.21-.246-.315-.576-.315-.99 0-.348.093-.663.28-.945.191-.288.476-.516.854-.684.384-.168.852-.252 1.404-.252.384 0 .762.048 1.134.144.372.096.693.234.963.414l-.369.909a3.64 3.64 0 00-.864-.369 3.232 3.232 0 00-.873-.126c-.462 0-.807.078-1.035.234a.724.724 0 00-.333.621c0 .18.063.327.19.441.131.114.296.204.494.27.198.066.468.141.81.225.468.108.852.222 1.152.342.3.114.555.291.765.531.216.24.324.564.324.972 0 .348-.096.663-.288.945-.186.282-.47.507-.855.675-.384.168-.852.252-1.404.252zm6.383-5.4h-2.088v-.99h5.346v.99h-2.088V37h-1.17v-5.31zM52.1 37l-.01-4.176-2.07 3.456h-.52l-2.07-3.402V37h-1.116v-6.3h.963l2.502 4.176 2.457-4.176h.963l.009 6.3H52.1zm9.018-.981V37h-4.725v-6.3h4.6v.981h-3.43v1.638h3.042v.963h-3.042v1.737h3.555zm8.388-5.319V37h-.963l-3.474-4.266V37h-1.161v-6.3h.963l3.474 4.266V30.7h1.16zm4.45.99H71.87v-.99h5.346v.99h-2.088V37h-1.17v-5.31zm10.764-.009v1.917h3.042v.99H84.72V37h-1.17v-6.3h4.6v.981h-3.43zm8.755 5.409c-.87 0-1.548-.243-2.034-.729-.486-.492-.73-1.194-.73-2.106V30.7h1.17v3.51c0 1.236.535 1.854 1.603 1.854 1.062 0 1.593-.618 1.593-1.854V30.7h1.152v3.555c0 .912-.243 1.614-.73 2.106-.48.486-1.154.729-2.024.729zm11.475-6.39V37h-.963l-3.474-4.266V37h-1.16v-6.3h.962l3.474 4.266V30.7h1.161zm3.173 0h2.754c.672 0 1.269.132 1.791.396a2.86 2.86 0 011.215 1.107c.288.474.432 1.023.432 1.647 0 .624-.144 1.176-.432 1.656a2.937 2.937 0 01-1.215 1.107c-.522.258-1.119.387-1.791.387h-2.754v-6.3zm2.7 5.31c.462 0 .867-.087 1.215-.261.354-.18.624-.432.81-.756.192-.33.288-.711.288-1.143 0-.432-.096-.81-.288-1.134a1.832 1.832 0 00-.81-.756c-.348-.18-.753-.27-1.215-.27h-1.53v4.32h1.53z" fill="#6A868A"/></svg>