<svg width="104" height="105" fill="none" xmlns="http://www.w3.org/2000/svg"><g opacity=".55" filter="url(#filter0_d)"><circle cx="52.328" cy="31.671" r="31.671" fill="#fff"/></g><circle cx="52.329" cy="31.671" r="26.479" fill="url(#paint0_linear)"/><g filter="url(#filter1_d)"><circle cx="50.5" cy="31.671" r="25.5" fill="#fff"/></g><path d="M44.791 31.173v.003l4.058 16.432 3.618-25.31v-.001a.733.733 0 01.72-.633.739.739 0 01.75.592v.003l3.498 17.863 2.254-4.476s0 0 0 0a.744.744 0 01.667-.41H75.5v-.593H59.457L58.7 36.15l-.001.002c-.314.63-1.263.507-1.402-.183v-.003l-4.309-22.032-3.773 26.38-4.424-9.14zm0 0a.74.74 0 00-.729-.558.738.738 0 00-.723.572l-2.266 9.728-3.539-4.97a.742.742 0 00-.613-.315H10.5v-.597h27.174l2.113 2.969h0m5.004-6.829l-5.004 6.829m0 0c.363.51 1.184.378 1.337-.255v-.004m-1.337.259l1.338-.259m0 0l2.9-12.444m-2.9 12.444l2.9-12.444m0 0l3.724 15.086v.001a.738.738 0 00.76.562.737.737 0 00.706-.633l-5.19-15.016zm.24-1.027h-.001 0z" fill="url(#paint1_linear)" stroke="url(#paint2_linear)"/><defs><linearGradient id="paint0_linear" x1="22.869" y1="-17.621" x2="81.789" y2="-17.621" gradientUnits="userSpaceOnUse"><stop stop-color="#3BDAB4"/><stop offset="1" stop-color="#A4C0FF"/></linearGradient><linearGradient id="paint1_linear" x1="6.285" y1="-3.767" x2="79.715" y2="-3.767" gradientUnits="userSpaceOnUse"><stop stop-color="#3BDAB4"/><stop offset="1" stop-color="#A4C0FF"/></linearGradient><linearGradient id="paint2_linear" x1="6.285" y1="-3.767" x2="79.715" y2="-3.767" gradientUnits="userSpaceOnUse"><stop stop-color="#3BDAB4"/><stop offset="1" stop-color="#A4C0FF"/></linearGradient><filter id="filter0_d" x=".657" y="0" width="103.342" height="104.342" filterUnits="userSpaceOnUse" color-interpolation-filters="sRGB"><feFlood flood-opacity="0" result="BackgroundImageFix"/><feColorMatrix in="SourceAlpha" values="0 0 0 0 0 0 0 0 0 0 0 0 0 0 0 0 0 0 127 0"/><feOffset dy="21"/><feGaussianBlur stdDeviation="10"/><feColorMatrix values="0 0 0 0 0.380392 0 0 0 0 0.6 0 0 0 0 0.611765 0 0 0 0.15 0"/><feBlend in2="BackgroundImageFix" result="effect1_dropShadow"/><feBlend in="SourceGraphic" in2="effect1_dropShadow" result="shape"/></filter><filter id="filter1_d" x="5" y="6.171" width="91" height="92" filterUnits="userSpaceOnUse" color-interpolation-filters="sRGB"><feFlood flood-opacity="0" result="BackgroundImageFix"/><feColorMatrix in="SourceAlpha" values="0 0 0 0 0 0 0 0 0 0 0 0 0 0 0 0 0 0 127 0"/><feOffset dy="21"/><feGaussianBlur stdDeviation="10"/><feColorMatrix values="0 0 0 0 0.380392 0 0 0 0 0.6 0 0 0 0 0.611765 0 0 0 0.25 0"/><feBlend in2="BackgroundImageFix" result="effect1_dropShadow"/><feBlend in="SourceGraphic" in2="effect1_dropShadow" result="shape"/></filter></defs></svg>