<svg width="35" height="28" fill="none" xmlns="http://www.w3.org/2000/svg"><path d="M30.895 0H6.985a3.281 3.281 0 00-3.267 3.282v.04h-.443A3.273 3.273 0 000 6.581v18.137A3.293 3.293 0 003.275 28h23.91a3.281 3.281 0 003.267-3.282v-.04h.443a3.273 3.273 0 003.274-3.259V3.282A3.288 3.288 0 0030.895 0zm-3.71 26.418H3.275a1.712 1.712 0 01-1.693-1.7V6.58a1.691 1.691 0 011.693-1.677h23.91A1.68 1.68 0 0128.87 6.58v4.524a1.95 1.95 0 01-.42.047h-4.563a4.503 4.503 0 00-4.5 4.501c0 2.484 2.016 4.5 4.5 4.509h4.556c.142-.008.285-.024.42-.04l.007 4.596a1.7 1.7 0 01-1.685 1.7zm5.403-4.999a1.691 1.691 0 01-1.693 1.677h-.443v-3.544c.34-.229.649-.514.91-.83l1.226-1.582v4.28zm-2.476-3.654a2.13 2.13 0 01-1.661.823h-4.564a2.928 2.928 0 01-2.919-2.927 2.928 2.928 0 012.919-2.926h4.556a3.679 3.679 0 002.91-1.432L32.58 9.72l.008 4.833-2.476 3.211zm2.476-10.63l-2.136 2.752V6.581a3.26 3.26 0 00-3.267-3.259H5.3v-.04a1.7 1.7 0 011.685-1.7h23.91a1.712 1.712 0 011.694 1.7v3.852z" fill="#00C4AC"/><path d="M25.658 14.87H23.76a.793.793 0 00-.791.791c0 .435.356.79.79.79h1.899a.793.793 0 00.791-.79.793.793 0 00-.791-.791z" fill="#00C4AC"/></svg>